<?xml version="1.0" encoding="UTF-8"?>
<svg width="100px" height="100px" viewBox="0 0 100 100" version="1.1" xmlns="http://www.w3.org/2000/svg" xmlns:xlink="http://www.w3.org/1999/xlink">
    <!-- Generator: Sketch 40.1 (33804) - http://www.bohemiancoding.com/sketch -->
    <title>conversion-optimizisation</title>
    <desc>Created with Sketch.</desc>
    <defs></defs>
    <g id="Page-1" stroke="none" stroke-width="1" fill="none" fill-rule="evenodd" stroke-linecap="round" stroke-linejoin="round">
        <g id="conversion-optimizisation" stroke-width="2">
            <g id="Group" transform="translate(18.000000, 17.000000)">
                <path d="M0.483888889,64 L63.8361111,64" id="Stroke-941" stroke="#FFFFFF"></path>
                <polygon id="Stroke-942" stroke="#FFFFFF" points="11.5016667 50.0638889 3.23833333 50.0638889 3.23833333 63.8361111 11.5016667 63.8361111"></polygon>
                <polygon id="Stroke-943" stroke="#FFFFFF" points="28.0283333 36.2916667 19.765 36.2916667 19.765 63.8361111 28.0283333 63.8361111"></polygon>
                <polygon id="Stroke-944" stroke="#FFFFFF" points="44.555 41.8005556 36.2916667 41.8005556 36.2916667 63.8361111 44.555 63.8361111"></polygon>
                <polygon id="Stroke-945" stroke="#FFFFFF" points="61.0816667 22.5194444 52.8183333 22.5194444 52.8183333 63.8361111 61.0816667 63.8361111"></polygon>
                <path d="M9.487066,29.0210351 L21.782906,18.7717473" id="Stroke-950" stroke="#FFFFFF"></path>
                <path d="M26.500443,17.8779301 L37.8900708,21.6735546" id="Stroke-951" stroke="#FFFFFF"></path>
                <path d="M55.1585093,5.32702856 L42.2153749,20.426893" id="Stroke-952" stroke="#FFFFFF"></path>
                <path d="M10.1244444,30.7827778 C10.1244444,32.3032311 8.89320778,33.5372222 7.37,33.5372222 C5.84954667,33.5372222 4.61555556,32.3032311 4.61555556,30.7827778 C4.61555556,29.25957 5.84954667,28.0283333 7.37,28.0283333 C8.89320778,28.0283333 10.1244444,29.25957 10.1244444,30.7827778 L10.1244444,30.7827778 Z" id="Stroke-946" stroke="#96B831"></path>
                <path d="M26.6511111,17.0105556 C26.6511111,18.5310089 25.4198744,19.765 23.8966667,19.765 C22.3762133,19.765 21.1422222,18.5310089 21.1422222,17.0105556 C21.1422222,15.4873478 22.3762133,14.2561111 23.8966667,14.2561111 C25.4198744,14.2561111 26.6511111,15.4873478 26.6511111,17.0105556 L26.6511111,17.0105556 Z" id="Stroke-947" stroke="#96B831"></path>
                <path d="M43.1777778,22.5194444 C43.1777778,24.0398978 41.9465411,25.2738889 40.4233333,25.2738889 C38.90288,25.2738889 37.6688889,24.0398978 37.6688889,22.5194444 C37.6688889,20.9962367 38.90288,19.765 40.4233333,19.765 C41.9465411,19.765 43.1777778,20.9962367 43.1777778,22.5194444 L43.1777778,22.5194444 Z" id="Stroke-948" stroke="#96B831"></path>
                <path d="M59.7044444,3.23833333 C59.7044444,4.75878667 58.4732078,5.99277778 56.95,5.99277778 C55.4295467,5.99277778 54.1955556,4.75878667 54.1955556,3.23833333 C54.1955556,1.71512556 55.4295467,0.483888889 56.95,0.483888889 C58.4732078,0.483888889 59.7044444,1.71512556 59.7044444,3.23833333 L59.7044444,3.23833333 Z" id="Stroke-949" stroke="#96B831"></path>
            </g>
        </g>
    </g>
</svg>