<?xml version="1.0" encoding="UTF-8"?>
<svg width="64px" height="55px" viewBox="0 0 64 55" version="1.1" xmlns="http://www.w3.org/2000/svg" xmlns:xlink="http://www.w3.org/1999/xlink">
    <!-- Generator: Sketch 39.1 (31720) - http://www.bohemiancoding.com/sketch -->
    <title>headset</title>
    <desc>Created with Sketch.</desc>
    <defs></defs>
    <g id="Page-1" stroke="none" stroke-width="1" fill="none" fill-rule="evenodd">
        <g id="headset" fill="#FEB901">
            <path d="M53,22 L52,22 L52,17 C52,16.83 51.771,0 32,0 C12.229,0 12,16.83 12,17 L12,22 L11,22 C4.935,22 0,26.935 0,33 C0,39.065 4.935,44 11,44 L14,44 L14,26 L14,22 L14,17 C14,16.388 14.205,2 32,2 C49.739,2 49.998,16.389 50,17 L50,22 L50,23 L50,43 L50,44 L50,47.323 L37,52.523 L37,49 L27,49 L27,55 L36.192,55 L52,48.677 L52,44 L53,44 C59.065,44 64,39.065 64,33 C64,26.935 59.065,22 53,22 L53,22 Z M12,42 L11,42 C6.037,42 2,37.962 2,33 C2,28.038 6.037,24 11,24 L12,24 L12,26 L12,42 L12,42 Z M29,53 L29,51 L35,51 L35,53 L29,53 L29,53 Z M53,42 L52,42 L52,24 L53,24 C57.963,24 62,28.038 62,33 C62,37.962 57.963,42 53,42 L53,42 Z" id="Shape"></path>
        </g>
    </g>
</svg>