<?xml version="1.0" encoding="UTF-8"?>
<svg width="100px" height="100px" viewBox="0 0 100 100" version="1.1" xmlns="http://www.w3.org/2000/svg" xmlns:xlink="http://www.w3.org/1999/xlink">
    <!-- Generator: Sketch 40.1 (33804) - http://www.bohemiancoding.com/sketch -->
    <title>mobile-consultancy</title>
    <desc>Created with Sketch.</desc>
    <defs></defs>
    <g id="Page-1" stroke="none" stroke-width="1" fill="none" fill-rule="evenodd" stroke-linecap="round" stroke-linejoin="round">
        <g id="mobile-consultancy" stroke-width="2">
            <g id="Group" transform="translate(9.000000, 9.000000)">
                <path d="M17.3333333,27.3106667 C17.3333333,29.1473333 18.8233333,30.644 20.6666667,30.644 L24,30.644 L34,40.644 L34,30.644 L57.3333333,30.644 C59.1733333,30.644 60.6666667,29.1473333 60.6666667,27.3106667 L60.6666667,3.97733333 C60.6666667,2.13733333 59.1733333,0.644 57.3333333,0.644 L20.6666667,0.644 C18.8233333,0.644 17.3333333,2.13733333 17.3333333,3.97733333 L17.3333333,27.3106667 L17.3333333,27.3106667 Z" id="Stroke-1797" stroke="#FFFFFF"></path>
                <path d="M72.3333333,45.691 C72.3333333,50.2943333 68.6033333,54.0243333 64,54.0243333 C59.3933333,54.0243333 55.6666667,50.2943333 55.6666667,45.691 C55.6666667,41.0876667 59.3933333,37.3576667 64,37.3576667 C68.6033333,37.3576667 72.3333333,41.0876667 72.3333333,45.691 L72.3333333,45.691 Z" id="Stroke-1798" stroke="#FFFFFF"></path>
                <path d="M77.3333333,67.3576667 L50.6666667,67.3576667 C50.6666667,59.9976667 56.6333333,54.0243333 64,54.0243333 C71.3666667,54.0243333 77.3333333,59.9976667 77.3333333,67.3576667 L77.3333333,67.3576667 Z" id="Stroke-1799" stroke="#FFFFFF"></path>
                <path d="M22.3333333,45.691 C22.3333333,50.2943333 18.6033333,54.0243333 14,54.0243333 C9.39333333,54.0243333 5.66666667,50.2943333 5.66666667,45.691 C5.66666667,41.0876667 9.39333333,37.3576667 14,37.3576667 C18.6033333,37.3576667 22.3333333,41.0876667 22.3333333,45.691 L22.3333333,45.691 Z" id="Stroke-1800" stroke="#FFFFFF"></path>
                <path d="M27.3333333,67.3576667 L0.666666667,67.3576667 C0.666666667,59.9976667 6.63333333,54.0243333 14,54.0243333 C21.3666667,54.0243333 27.3333333,59.9976667 27.3333333,67.3576667 L27.3333333,67.3576667 Z" id="Stroke-1801" stroke="#FFFFFF"></path>
                <path d="M47.3333333,55.691 C47.3333333,60.2943333 43.6033333,64.0243333 39,64.0243333 C34.3933333,64.0243333 30.6666667,60.2943333 30.6666667,55.691 C30.6666667,51.0876667 34.3933333,47.3576667 39,47.3576667 C43.6033333,47.3576667 47.3333333,51.0876667 47.3333333,55.691 L47.3333333,55.691 Z" id="Stroke-1802" stroke="#FFFFFF"></path>
                <path d="M52.3333333,77.3576667 L25.6666667,77.3576667 C25.6666667,69.9976667 31.6333333,64.0243333 39,64.0243333 C46.3666667,64.0243333 52.3333333,69.9976667 52.3333333,77.3576667 L52.3333333,77.3576667 Z" id="Stroke-1803" stroke="#FFFFFF"></path>
                <path d="M27.3333333,8 L50.5633333,8" id="Stroke-1804" stroke="#96B831"></path>
                <path d="M27.3333333,15 L50.5633333,15" id="Stroke-1805" stroke="#96B831"></path>
                <path d="M27.3333333,22 L50.5633333,22" id="Stroke-1806" stroke="#96B831"></path>
            </g>
        </g>
    </g>
</svg>