<?xml version="1.0" encoding="UTF-8"?>
<svg width="100px" height="100px" viewBox="0 0 100 100" version="1.1" xmlns="http://www.w3.org/2000/svg" xmlns:xlink="http://www.w3.org/1999/xlink">
    <!-- Generator: Sketch 40.1 (33804) - http://www.bohemiancoding.com/sketch -->
    <title>performance-network</title>
    <desc>Created with Sketch.</desc>
    <defs></defs>
    <g id="Page-1" stroke="none" stroke-width="1" fill="none" fill-rule="evenodd" stroke-linejoin="round">
        <g id="performance-network" stroke-width="2">
            <g id="Group" transform="translate(19.000000, 19.000000)">
                <path d="M9.66666667,16.6250667 L9.66666667,20.3344 L2.896,22.2677333 C1.488,22.6730667 0.333333333,24.2010667 0.333333333,25.6677333 L0.333333333,27.0010667 L15,27.0010667" id="Stroke-547" stroke="#FFFFFF"></path>
                <path d="M17.6666667,16.5416 L17.6666667,20.3336 L24.4346667,22.2669333 C25.8453333,22.6722667 27,24.2002667 27,25.6669333 L27,27.0002667 L12.3333333,27.0002667" id="Stroke-548" stroke="#FFFFFF"></path>
                <path d="M21.6666667,9.05733333 C21.6666667,13.8733333 18.0826667,17.7826667 13.6666667,17.7826667 C9.248,17.7826667 5.66666667,13.8733333 5.66666667,9.05733333 C5.66666667,4.23866667 9.248,0.334666667 13.6666667,0.334666667 C18.0826667,0.334666667 21.6666667,4.23866667 21.6666667,9.05733333 L21.6666667,9.05733333 Z" id="Stroke-549" stroke="#FFFFFF"></path>
                <path d="M21.5832,7.52853333 C20.2498667,8.86186667 16.4365333,8.79786667 14.9992,6.12053333 C12.3325333,8.7872 7.9992,8.7872 5.84453333,7.26453333" id="Stroke-550" stroke="#FFFFFF"></path>
                <path d="M44.3333333,16.6250667 L44.3333333,20.3344 L37.5626667,22.2677333 C36.1546667,22.6730667 35,24.2010667 35,25.6677333 L35,27.0010667 L49.6666667,27.0010667" id="Stroke-551" stroke="#FFFFFF"></path>
                <path d="M52.3333333,16.5832 L52.3333333,20.3325333 L59.1013333,22.2685333 C60.512,22.6712 61.6666667,24.2018667 61.6666667,25.6658667 L61.6666667,26.9992 L47,26.9992" id="Stroke-552" stroke="#FFFFFF"></path>
                <path d="M56.3333333,9.05733333 C56.3333333,13.8733333 52.7493333,17.7826667 48.3333333,17.7826667 C43.9146667,17.7826667 40.3333333,13.8733333 40.3333333,9.05733333 C40.3333333,4.23866667 43.9146667,0.334666667 48.3333333,0.334666667 C52.7493333,0.334666667 56.3333333,4.23866667 56.3333333,9.05733333 L56.3333333,9.05733333 Z" id="Stroke-553" stroke="#FFFFFF"></path>
                <path d="M56.2082667,7.5208 C54.8749333,8.85413333 51.1042667,8.79813333 49.6669333,6.1208 C47.0002667,8.78746667 42.6669333,8.78746667 40.5096,7.2648" id="Stroke-554" stroke="#FFFFFF"></path>
                <path d="M27,51.2917333 L27,55.0010667 L20.2293333,56.9344 C18.8213333,57.3397333 17.6666667,58.8677333 17.6666667,60.3344 L17.6666667,61.6677333 L32.3333333,61.6677333" id="Stroke-555" stroke="#FFFFFF"></path>
                <path d="M35,51.2917333 L35,55.0010667 L41.768,56.9344 C43.1786667,57.3397333 44.3333333,58.8677333 44.3333333,60.3344 L44.3333333,61.6677333 L29.6666667,61.6677333" id="Stroke-556" stroke="#FFFFFF"></path>
                <path d="M39,43.724 C39,48.54 35.416,52.4493333 31,52.4493333 C26.5813333,52.4493333 23,48.54 23,43.724 C23,38.9053333 26.5813333,35.0013333 31,35.0013333 C35.416,35.0013333 39,38.9053333 39,43.724 L39,43.724 Z" id="Stroke-557" stroke="#FFFFFF"></path>
                <path d="M38.8749333,42.1210667 C37.5416,43.4544 33.7709333,43.4624 32.3336,40.7877333 C29.6669333,43.4544 25.3336,43.4544 23.1762667,41.9317333" id="Stroke-558" stroke="#FFFFFF"></path>
                <path d="M9.66666667,32.3333333 L16.3333333,39" id="Stroke-559" stroke="#96B831" stroke-linecap="round"></path>
                <path d="M52.3333333,32.3333333 L45.6666667,39" id="Stroke-560" stroke="#96B831" stroke-linecap="round"></path>
            </g>
        </g>
    </g>
</svg>