<svg width="47" height="50" viewBox="0 0 47 50" xmlns="http://www.w3.org/2000/svg"><title>Fill 45</title><path d="M23.53 0l-10.4 10.4L0 4.648V50h15.398v-2.377c0-2.886 1.556-5.578 4.06-7.027.24-.138.486-.26.735-.373l-5.016-2.392c-2.236 1.91-3.762 4.534-4.31 7.416H4.754v-33.42l9.57 4.092 9.2-9.204 9.196 9.196 9.552-4.085v33.42h-6.115c-.69-3.64-2.94-6.87-6.21-8.764-.258-.148-.517-.287-.78-.416.007-.004-7.654-3.362-7.654-3.362-1.815-.796-2.988-2.59-2.988-4.57 0-3.07 2.79-5.502 5.968-4.893 1.78.34 3.28 1.698 3.794 3.437.603 2.043-.12 4.09-1.62 5.315l4.61 2.018c1.256-1.66 1.976-3.71 1.976-5.878 0-5.89-5.254-10.576-11.32-9.616-3.787.6-6.942 3.49-7.865 7.21-.578 2.33-.286 4.644.663 6.62.95 1.978 2.652 3.492 4.63 4.44l4.146 1.984.007-.004 3.105 1.36c.427.18.765.354 1.15.59 2.402 1.466 3.86 4.092 3.86 6.907V50h15.397V4.648l-13.11 5.74L23.53 0z" fill="#31363B" fill-rule="evenodd"/></svg>